<svg xmlns="http://www.w3.org/2000/svg">
  <defs>
    <symbol id="chevron-right" viewBox="0 0 24 24">
      <polyline points="9 18 15 12 9 6"></polyline>
    </symbol>
    <symbol id="chevron-up" viewBox="0 0 24 24">
      <polyline points="18 15 12 9 6 15"></polyline>
    </symbol>
    <symbol id="chevron-down" viewBox="0 0 24 24">
      <polyline points="6 9 12 15 18 9"></polyline>
    </symbol>
    <symbol id="palugadabet" viewBox="0 0 24 14">
      <path d="M0 0h24v24H0z"/>
      <path d="M12 5.658L10.306 4C6.47 5.691 3.84 7.437 2.416 9.236c-1.422 1.8-1.773 3.33-1.052 4.588.452 1.203 1.957 1.805 4.514 1.805 2.557 0 2.557 1.457 0 4.371h1.818L12 5.658z" fill="#FFE900"/>
      <path d="M17.556 6c.749 0 1.454.137 2.117.412a5.565 5.565 0 0 1 1.728 1.11 5.31 5.31 0 0 1 1.167 1.637A4.73 4.73 0 0 1 23 11.165a4.8 4.8 0 0 1-.432 2.017 5.274 5.274 0 0 1-1.167 1.646 5.565 5.565 0 0 1-1.728 1.111 5.478 5.478 0 0 1-2.117.412h-2.16l.982-3.502c1.894-.156 2.841-.91 2.841-2.264 0-2.03-2.173-1.426-2.524-1.426l-.586 1.673-2.425 8.471L9 20l4.267-14h4.289z" fill="#FFF" fill-rule="nonzero"/>
    </symbol>
    <symbol id="sign-in" viewBox="0 0 24 24">
      <path d="M15 3h4a2 2 0 0 1 2 2v14a2 2 0 0 1-2 2h-4"></path>
      <polyline points="10 17 15 12 10 7"></polyline>
      <line x1="15" y1="12" x2="3" y2="12"></line>
    </symbol>
    <symbol id="user-plus" viewBox="0 0 24 24">
      <path d="M16 21v-2a4 4 0 0 0-4-4H5a4 4 0 0 0-4 4v2"></path>
      <circle cx="8.5" cy="7" r="4"></circle>
      <line x1="20" y1="8" x2="20" y2="14"></line>
      <line x1="23" y1="11" x2="17" y2="11"></line>
    </symbol>
    <symbol id="ace" viewBox="0 0 24 24">
      <path d="M12.164.836l-9.839 9.84v5.708l4.925 2.844 4.925-2.844 4.925 2.844 4.925-2.844v-5.708z"/>
      <path d="M8.927 23.514h6.474l-3.237-5.422z"/>
    </symbol>
    <symbol id="copyright" viewBox="0 0 100 100">
      <path d="M50,5C25.147,5,5,25.147,5,50c0,24.853,20.147,45,45,45s45-20.147,45-45C95,25.147,74.853,5,50,5z M39.394,60.607  c5.849,5.849,15.365,5.849,21.214,0l7.07,7.071C62.805,72.551,56.402,74.988,50,74.988s-12.805-2.437-17.678-7.311  c-9.747-9.748-9.747-25.608-0.001-35.355c9.748-9.748,25.61-9.748,35.356,0l-7.07,7.071c-5.85-5.849-15.365-5.849-21.215,0  C33.545,45.242,33.545,54.758,39.394,60.607z"/>
    </symbol>
    <symbol id="youtube" viewBox="0 0 24 24">
      <path d="M22.54 6.42a2.78 2.78 0 0 0-1.94-2C18.88 4 12 4 12 4s-6.88 0-8.6.46a2.78 2.78 0 0 0-1.94 2A29 29 0 0 0 1 11.75a29 29 0 0 0 .46 5.33A2.78 2.78 0 0 0 3.4 19c1.72.46 8.6.46 8.6.46s6.88 0 8.6-.46a2.78 2.78 0 0 0 1.94-2 29 29 0 0 0 .46-5.25 29 29 0 0 0-.46-5.33z"/>
        <polygon points="9.75 15.02 15.5 11.75 9.75 8.48 9.75 15.02"/>
    </symbol>
  </defs>
</svg>
